%
M48
M72
T01C0.03150
T02C0.03200
T03C0.04000
T04C0.04400
T05C0.08661
%
T01
X174856Y101804
X193292Y101847
X221800Y46800
X236800Y31800
X296800Y31800
X306800Y21800
T02
X286800Y31800
X276800Y31800
X266800Y51800
X266800Y61800
X266800Y71800
X266800Y81800
X251800Y71800
X241800Y71800
X241800Y86800
X241800Y96800
X226800Y111800
X226800Y121800
X226800Y131800
X226800Y141800
X226800Y151800
X226800Y161800
X226800Y171800
X226800Y181800
X226800Y191800
X226800Y201800
X226800Y211800
X226800Y221800
X226800Y231800
X226800Y241800
X251800Y241800
X251800Y231800
X251800Y221800
X251800Y211800
X251800Y201800
X251800Y191800
X251800Y181800
X251800Y171800
X256800Y151800
X241800Y151800
X241800Y121800
X211800Y95875
X206800Y81800
X206800Y71800
X206800Y61800
X206800Y51800
X186800Y36800
X186800Y21800
X176800Y51800
X176800Y61800
X176800Y71800
X176800Y81800
X166800Y86800
X181800Y95875
X196800Y111800
X196800Y121800
X196800Y131800
X196800Y141800
X196800Y151800
X196800Y161800
X196800Y171800
X196800Y181800
X196800Y191800
X196800Y201800
X196800Y211800
X196800Y221800
X196800Y231800
X196800Y241800
X161800Y250225
X161800Y231800
X161800Y211800
X161800Y191800
X161800Y171800
X176800Y166300
X176800Y147300
X156800Y127863
X156800Y117863
X156800Y107863
X136800Y86800
X126800Y107863
X126800Y117863
X126800Y127863
X86800Y161800
X86800Y171800
X86800Y181800
X86800Y191800
X86800Y201800
X86800Y211800
X86800Y221800
X86800Y231800
X86800Y241800
X86800Y251800
X86800Y261800
X86800Y271800
X86800Y281800
X86800Y291800
X86800Y301800
X56800Y276800
X56800Y266800
X56800Y256800
X56800Y246800
X56800Y236800
X131800Y231800
X131800Y250225
X131800Y211800
X131800Y191800
X131800Y171800
X226800Y271800
X236800Y271800
X246800Y271800
X256800Y271800
X266800Y271800
X276800Y286800
X276800Y296800
X246800Y296800
X246800Y286800
X216800Y291800
X186800Y291800
X281800Y241800
X281800Y231800
X281800Y221800
X281800Y211800
X281800Y201800
X281800Y191800
X281800Y181800
X281800Y171800
X296800Y151800
X326800Y146800
X326800Y156800
X326800Y166800
X326800Y181800
X326800Y191800
X326800Y201800
X326800Y211800
X326800Y221800
X326800Y231800
X326800Y241800
X326800Y136800
X326800Y126800
X326800Y116800
X296800Y81800
X296800Y71800
X296800Y61800
X296800Y51800
X146800Y36800
X146800Y21800
T03
X30700Y104000
X12900Y104000
X12900Y129600
X30700Y129600
X30700Y149000
X12900Y149000
X12900Y174600
X30700Y174600
X30700Y199000
X12900Y199000
X12900Y224600
X30700Y224600
X30700Y249000
X12900Y249000
X12900Y274600
X30700Y274600
X164000Y280700
X164000Y262900
X189600Y262900
X189600Y280700
T04
X26800Y71800
X26800Y31800
X96800Y51800
T05
X16800Y16800
X16800Y16800
X16800Y301800
X16800Y301800
X326800Y301800
X326800Y301800
X326800Y16800
X326800Y16800
M30
